# xmcd
#
# Track frame offsets:
#	180
#	10840
#	22501
#	32633
#	43292
#	54606
#	68940
#	79344
#	90675
#	103396
#
# Disc length: 1564 seconds
# Revision: 2
# Processed by: cddbd v1.5.2PL0 Copyright (c) Steve Scherf et al.
# Submitted via: dBpowerAMP V12.0
#
DISCID=7d061a0a
DTITLE=Patsy Cline - Hungry for Love [Direct Source]
DYEAR=2000
DGENRE=Country
TTITLE0=Gotta Lot of Rhythm in My Soul
TTITLE1=I've Loved and Lost Again
TTITLE2=Three Cigarettes in an Ashtray
TTITLE3=I Can See an Angel
TTITLE4=Hungry for Love
TTITLE5=Then You'll Know
TTITLE6=Walking Dream
TTITLE7=That Wonderful Someone
TTITLE8=Just a Closer Walk With Thee
TTITLE9=A Church, a Courtroom, and Then Goodbye
EXTD=
EXTT0=
EXTT1=
EXTT2=
EXTT3=
EXTT4=
EXTT5=
EXTT6=
EXTT7=
EXTT8=
EXTT9=
PLAYORDER=
